<svg
  xmlns="http://www.w3.org/2000/svg"
  width="256"
  height="256"
  viewBox="0 0 100 100"
  role="img"
  aria-labelledby="title"
>
  <title id="title">PoGo Calendar</title>
  <defs>
    <clipPath id="calendar-body">
      <rect x="8" y="17" width="84" height="78" rx="17" />
    </clipPath>
  </defs>

  <rect x="8" y="17" width="84" height="78" rx="17" fill="#fff" />
  <path d="M8 17h84v36.5H8z" fill="#ef3935" clip-path="url(#calendar-body)" />

  <path
    d="M25 17H21C13.8 17 8 22.8 8 30v52c0 7.2 5.8 13 13 13h58c7.2 0 13-5.8 13-13V30c0-7.2-5.8-13-13-13h-4"
    fill="none"
    stroke="#20242c"
    stroke-width="5"
    stroke-linecap="round"
    stroke-linejoin="round"
  />
  <path d="M39 17h22" fill="none" stroke="#20242c" stroke-width="5" />

  <circle cx="32" cy="13" r="7" fill="#fff" stroke="#20242c" stroke-width="5" />
  <circle cx="68" cy="13" r="7" fill="#fff" stroke="#20242c" stroke-width="5" />

  <path d="M9 56h82" fill="none" stroke="#20242c" stroke-width="5" />
  <circle cx="50" cy="56" r="13" fill="#fff" stroke="#20242c" stroke-width="5" />
  <circle cx="50" cy="56" r="5.5" fill="#e9edf2" />
</svg>
